<mxfile host="app.diagrams.net" agent="Mozilla/5.0 (Windows NT 10.0; Win64; x64) AppleWebKit/537.36 (KHTML, like Gecko) Chrome/140.0.0.0 Safari/537.36 Edg/140.0.0.0" version="28.1.2">
  <diagram id="R2lEEEUBdFMjLlhIrx00" name="Diagrama ER">
    <mxGraphModel dx="1680" dy="1536" grid="1" gridSize="10" guides="1" tooltips="1" connect="1" arrows="1" fold="1" page="1" pageScale="1" pageWidth="850" pageHeight="1100" math="0" shadow="0" extFonts="Permanent Marker^https://fonts.googleapis.com/css?family=Permanent+Marker">
      <root>
        <mxCell id="0" />
        <mxCell id="1" parent="0" />
        <mxCell id="b-NyMTzFm3RAY_flvcHs-1" value="Mascota" style="swimlane;childLayout=stackLayout;horizontal=1;startSize=50;horizontalStack=0;rounded=1;fontSize=14;fontStyle=0;strokeWidth=2;resizeParent=0;resizeLast=1;shadow=0;dashed=0;align=center;arcSize=4;whiteSpace=wrap;html=1;" vertex="1" parent="1">
          <mxGeometry x="210" y="180" width="160" height="200" as="geometry" />
        </mxCell>
        <mxCell id="b-NyMTzFm3RAY_flvcHs-2" value="&lt;div&gt;+Id&lt;/div&gt;+Nombre&lt;br&gt;+FechaNacimento&lt;br&gt;+Peso&lt;div&gt;+Especie&lt;/div&gt;&lt;div&gt;+Raza&lt;/div&gt;&lt;div&gt;+Color&lt;/div&gt;&lt;div&gt;+Sexo&lt;/div&gt;&lt;div&gt;+Vacunas&lt;/div&gt;&lt;div&gt;+Propietario&lt;/div&gt;" style="align=left;strokeColor=none;fillColor=none;spacingLeft=4;spacingRight=4;fontSize=12;verticalAlign=top;resizable=0;rotatable=0;part=1;html=1;whiteSpace=wrap;" vertex="1" parent="b-NyMTzFm3RAY_flvcHs-1">
          <mxGeometry y="50" width="160" height="150" as="geometry" />
        </mxCell>
        <mxCell id="b-NyMTzFm3RAY_flvcHs-5" style="edgeStyle=orthogonalEdgeStyle;rounded=0;orthogonalLoop=1;jettySize=auto;html=1;" edge="1" parent="1" source="b-NyMTzFm3RAY_flvcHs-3" target="b-NyMTzFm3RAY_flvcHs-2">
          <mxGeometry relative="1" as="geometry" />
        </mxCell>
        <mxCell id="b-NyMTzFm3RAY_flvcHs-3" value="Propietario" style="swimlane;childLayout=stackLayout;horizontal=1;startSize=50;horizontalStack=0;rounded=1;fontSize=14;fontStyle=0;strokeWidth=2;resizeParent=0;resizeLast=1;shadow=0;dashed=0;align=center;arcSize=4;whiteSpace=wrap;html=1;" vertex="1" parent="1">
          <mxGeometry x="520" y="180" width="160" height="190" as="geometry" />
        </mxCell>
        <mxCell id="b-NyMTzFm3RAY_flvcHs-4" value="+Id&lt;div&gt;+Nombre&lt;br&gt;+Apellido&lt;br&gt;+Telefono&lt;div&gt;+Direccion&lt;/div&gt;&lt;div&gt;+Nacionalidad&lt;/div&gt;&lt;/div&gt;" style="align=left;strokeColor=none;fillColor=none;spacingLeft=4;spacingRight=4;fontSize=12;verticalAlign=top;resizable=0;rotatable=0;part=1;html=1;whiteSpace=wrap;" vertex="1" parent="b-NyMTzFm3RAY_flvcHs-3">
          <mxGeometry y="50" width="160" height="140" as="geometry" />
        </mxCell>
        <mxCell id="b-NyMTzFm3RAY_flvcHs-19" style="edgeStyle=orthogonalEdgeStyle;rounded=0;orthogonalLoop=1;jettySize=auto;html=1;" edge="1" parent="1" source="b-NyMTzFm3RAY_flvcHs-6">
          <mxGeometry relative="1" as="geometry">
            <mxPoint x="290" y="380" as="targetPoint" />
          </mxGeometry>
        </mxCell>
        <mxCell id="b-NyMTzFm3RAY_flvcHs-6" value="Especie" style="swimlane;childLayout=stackLayout;horizontal=1;startSize=50;horizontalStack=0;rounded=1;fontSize=14;fontStyle=0;strokeWidth=2;resizeParent=0;resizeLast=1;shadow=0;dashed=0;align=center;arcSize=4;whiteSpace=wrap;html=1;" vertex="1" parent="1">
          <mxGeometry x="-40" y="500" width="160" height="120" as="geometry" />
        </mxCell>
        <mxCell id="b-NyMTzFm3RAY_flvcHs-7" value="+Id&lt;div&gt;+Descripcion&lt;/div&gt;" style="align=left;strokeColor=none;fillColor=none;spacingLeft=4;spacingRight=4;fontSize=12;verticalAlign=top;resizable=0;rotatable=0;part=1;html=1;whiteSpace=wrap;" vertex="1" parent="b-NyMTzFm3RAY_flvcHs-6">
          <mxGeometry y="50" width="160" height="70" as="geometry" />
        </mxCell>
        <mxCell id="b-NyMTzFm3RAY_flvcHs-8" value="Raza" style="swimlane;childLayout=stackLayout;horizontal=1;startSize=50;horizontalStack=0;rounded=1;fontSize=14;fontStyle=0;strokeWidth=2;resizeParent=0;resizeLast=1;shadow=0;dashed=0;align=center;arcSize=4;whiteSpace=wrap;html=1;" vertex="1" parent="1">
          <mxGeometry x="345" y="470" width="160" height="120" as="geometry" />
        </mxCell>
        <mxCell id="b-NyMTzFm3RAY_flvcHs-9" value="+Id&lt;div&gt;+Descripcion&lt;/div&gt;" style="align=left;strokeColor=none;fillColor=none;spacingLeft=4;spacingRight=4;fontSize=12;verticalAlign=top;resizable=0;rotatable=0;part=1;html=1;whiteSpace=wrap;" vertex="1" parent="b-NyMTzFm3RAY_flvcHs-8">
          <mxGeometry y="50" width="160" height="70" as="geometry" />
        </mxCell>
        <mxCell id="b-NyMTzFm3RAY_flvcHs-17" style="edgeStyle=orthogonalEdgeStyle;rounded=0;orthogonalLoop=1;jettySize=auto;html=1;" edge="1" parent="1" source="b-NyMTzFm3RAY_flvcHs-10" target="b-NyMTzFm3RAY_flvcHs-2">
          <mxGeometry relative="1" as="geometry" />
        </mxCell>
        <mxCell id="b-NyMTzFm3RAY_flvcHs-10" value="Color" style="swimlane;childLayout=stackLayout;horizontal=1;startSize=50;horizontalStack=0;rounded=1;fontSize=14;fontStyle=0;strokeWidth=2;resizeParent=0;resizeLast=1;shadow=0;dashed=0;align=center;arcSize=4;whiteSpace=wrap;html=1;" vertex="1" parent="1">
          <mxGeometry x="-30" y="190" width="160" height="120" as="geometry" />
        </mxCell>
        <mxCell id="b-NyMTzFm3RAY_flvcHs-11" value="+Id&lt;div&gt;+Descripcion&lt;/div&gt;" style="align=left;strokeColor=none;fillColor=none;spacingLeft=4;spacingRight=4;fontSize=12;verticalAlign=top;resizable=0;rotatable=0;part=1;html=1;whiteSpace=wrap;" vertex="1" parent="b-NyMTzFm3RAY_flvcHs-10">
          <mxGeometry y="50" width="160" height="70" as="geometry" />
        </mxCell>
        <mxCell id="b-NyMTzFm3RAY_flvcHs-12" value="Sexo" style="swimlane;childLayout=stackLayout;horizontal=1;startSize=50;horizontalStack=0;rounded=1;fontSize=14;fontStyle=0;strokeWidth=2;resizeParent=0;resizeLast=1;shadow=0;dashed=0;align=center;arcSize=4;whiteSpace=wrap;html=1;" vertex="1" parent="1">
          <mxGeometry x="-40" y="340" width="160" height="120" as="geometry" />
        </mxCell>
        <mxCell id="b-NyMTzFm3RAY_flvcHs-13" value="+Id&lt;div&gt;+Descripcion&lt;/div&gt;" style="align=left;strokeColor=none;fillColor=none;spacingLeft=4;spacingRight=4;fontSize=12;verticalAlign=top;resizable=0;rotatable=0;part=1;html=1;whiteSpace=wrap;" vertex="1" parent="b-NyMTzFm3RAY_flvcHs-12">
          <mxGeometry y="50" width="160" height="70" as="geometry" />
        </mxCell>
        <mxCell id="b-NyMTzFm3RAY_flvcHs-16" style="edgeStyle=orthogonalEdgeStyle;rounded=0;orthogonalLoop=1;jettySize=auto;html=1;" edge="1" parent="1" source="b-NyMTzFm3RAY_flvcHs-14" target="b-NyMTzFm3RAY_flvcHs-4">
          <mxGeometry relative="1" as="geometry" />
        </mxCell>
        <mxCell id="b-NyMTzFm3RAY_flvcHs-14" value="Nacionalidad" style="swimlane;childLayout=stackLayout;horizontal=1;startSize=50;horizontalStack=0;rounded=1;fontSize=14;fontStyle=0;strokeWidth=2;resizeParent=0;resizeLast=1;shadow=0;dashed=0;align=center;arcSize=4;whiteSpace=wrap;html=1;" vertex="1" parent="1">
          <mxGeometry x="750" y="200" width="160" height="120" as="geometry" />
        </mxCell>
        <mxCell id="b-NyMTzFm3RAY_flvcHs-15" value="+Id&lt;div&gt;+Descripcion&lt;/div&gt;" style="align=left;strokeColor=none;fillColor=none;spacingLeft=4;spacingRight=4;fontSize=12;verticalAlign=top;resizable=0;rotatable=0;part=1;html=1;whiteSpace=wrap;" vertex="1" parent="b-NyMTzFm3RAY_flvcHs-14">
          <mxGeometry y="50" width="160" height="70" as="geometry" />
        </mxCell>
        <mxCell id="b-NyMTzFm3RAY_flvcHs-18" style="edgeStyle=orthogonalEdgeStyle;rounded=0;orthogonalLoop=1;jettySize=auto;html=1;" edge="1" parent="1" source="b-NyMTzFm3RAY_flvcHs-13" target="b-NyMTzFm3RAY_flvcHs-2">
          <mxGeometry relative="1" as="geometry" />
        </mxCell>
        <mxCell id="b-NyMTzFm3RAY_flvcHs-20" style="edgeStyle=orthogonalEdgeStyle;rounded=0;orthogonalLoop=1;jettySize=auto;html=1;" edge="1" parent="1" source="b-NyMTzFm3RAY_flvcHs-9" target="b-NyMTzFm3RAY_flvcHs-2">
          <mxGeometry relative="1" as="geometry" />
        </mxCell>
        <mxCell id="b-NyMTzFm3RAY_flvcHs-23" style="edgeStyle=orthogonalEdgeStyle;rounded=0;orthogonalLoop=1;jettySize=auto;html=1;" edge="1" parent="1" source="b-NyMTzFm3RAY_flvcHs-21" target="b-NyMTzFm3RAY_flvcHs-1">
          <mxGeometry relative="1" as="geometry" />
        </mxCell>
        <mxCell id="b-NyMTzFm3RAY_flvcHs-21" value="Vacuna" style="swimlane;childLayout=stackLayout;horizontal=1;startSize=50;horizontalStack=0;rounded=1;fontSize=14;fontStyle=0;strokeWidth=2;resizeParent=0;resizeLast=1;shadow=0;dashed=0;align=center;arcSize=4;whiteSpace=wrap;html=1;" vertex="1" parent="1">
          <mxGeometry x="230" y="-50" width="160" height="120" as="geometry" />
        </mxCell>
        <mxCell id="b-NyMTzFm3RAY_flvcHs-22" value="+Id&lt;div&gt;+Descripcion&lt;/div&gt;" style="align=left;strokeColor=none;fillColor=none;spacingLeft=4;spacingRight=4;fontSize=12;verticalAlign=top;resizable=0;rotatable=0;part=1;html=1;whiteSpace=wrap;" vertex="1" parent="b-NyMTzFm3RAY_flvcHs-21">
          <mxGeometry y="50" width="160" height="70" as="geometry" />
        </mxCell>
      </root>
    </mxGraphModel>
  </diagram>
</mxfile>
